<svg width="40" height="40" viewBox="0 0 40 40" fill="none" xmlns="http://www.w3.org/2000/svg">
<rect width="40" height="40" rx="20" fill="#FF3E79"/>
<path fill-rule="evenodd" clip-rule="evenodd" d="M13.7934 12.2572C13.4028 11.8667 12.7697 11.8667 12.3792 12.2572L12.257 12.3794C11.8665 12.7699 11.8665 13.4031 12.257 13.7936L18.4635 20.0001L12.257 26.2067C11.8665 26.5972 11.8665 27.2303 12.257 27.6209L12.3792 27.743C12.7697 28.1335 13.4028 28.1335 13.7934 27.743L19.9999 21.5365L26.2064 27.743C26.5969 28.1335 27.2301 28.1335 27.6206 27.743L27.7428 27.6209C28.1333 27.2303 28.1333 26.5972 27.7428 26.2067L21.5362 20.0001L27.7428 13.7936C28.1333 13.4031 28.1333 12.7699 27.7428 12.3794L27.6206 12.2572C27.2301 11.8667 26.5969 11.8667 26.2064 12.2572L19.9999 18.4638L13.7934 12.2572Z" fill="white"/>
</svg>
